<?xml version="1.0" standalone="no"?><!DOCTYPE svg PUBLIC "-//W3C//DTD SVG 1.1//EN" "http://www.w3.org/Graphics/SVG/1.1/DTD/svg11.dtd"><svg t="1630476074514" class="icon" viewBox="0 0 1024 1024" version="1.1" xmlns="http://www.w3.org/2000/svg" p-id="957" xmlns:xlink="http://www.w3.org/1999/xlink" width="200" height="200"><defs><style type="text/css"></style></defs><path d="M328.691358 453.666314c-16.615168 0-32.146737-6.501587-43.705115-18.059965-11.558377-11.558377-18.059965-27.451146-18.059964-43.705114V309.186596c0-34.313933 27.812346-62.126279 62.126278-62.126279s62.126279 27.812346 62.126279 62.126279v82.714639c-0.361199 33.952734-28.173545 61.765079-62.487478 61.765079z m372.757672 0c-34.313933 0-62.126279-27.812346-62.126279-61.765079V309.186596c0-34.313933 27.812346-61.765079 62.126279-61.765079s62.126279 27.812346 62.126279 61.765079v82.714639c0 33.952734-27.812346 61.765079-62.126279 61.765079z m0 0M515.070194 577.196473c116.667372 0 224.304762 52.735097 295.461023 145.202116 13.364374 18.059965 9.752381 43.705115-8.307584 57.430688-17.698765 13.725573-43.343915 10.47478-57.430688-7.223986-55.263492-71.51746-139.061728-112.69418-230.08395-112.69418-89.577425 0-173.014462 40.454321-228.277954 110.888184-14.447972 17.337566-39.731922 19.865961-57.430688 6.140388s-21.310758-39.009524-7.946385-57.069489c71.51746-91.022222 178.793651-142.673721 294.016226-142.673721z" p-id="958"></path></svg>